<svg width="56" height="52" viewBox="0 0 56 52" fill="none" xmlns="http://www.w3.org/2000/svg">
<path d="M30.9614 24.9452C30.7685 25.3457 30.7838 25.8169 31.0012 26.2048L34.0903 31.5341C34.3517 31.9859 34.3261 32.5496 34.0254 32.9766C33.7364 33.411 33.225 33.6381 32.7115 33.5638L26.6411 32.7571C26.4294 32.7271 26.2139 32.7484 26.0103 32.8165L25.6982 32.9311C25.5958 32.987 25.5025 33.0607 25.425 33.1495L21.2974 37.7131C21.0914 37.9332 20.8222 38.0833 20.5259 38.1407C19.7971 38.2611 19.1055 37.774 18.9674 37.0431L17.9272 30.962C17.8444 30.5208 17.5542 30.1478 17.1488 29.9616L11.521 27.4293C11.0502 27.2172 10.7446 26.7514 10.7369 26.2327C10.725 25.7169 10.9975 25.2373 11.4459 24.9874L16.867 22.0508C17.286 21.8458 17.5718 21.4388 17.6248 20.9727L18.2623 14.8408C18.2802 14.7029 18.3187 14.5679 18.3792 14.4432L18.4535 14.324C18.4858 14.2438 18.53 14.1711 18.5844 14.1052L18.6931 14.0128L18.8595 13.8597L19.3444 13.6818C19.7937 13.5681 20.2694 13.6891 20.6097 14.0056L25.0416 18.251C25.3631 18.5625 25.8165 18.6943 26.2531 18.6063L32.2795 17.3419C32.7884 17.2339 33.3143 17.4219 33.6423 17.8269C33.9615 18.2365 34.0161 18.7945 33.7827 19.2598L30.9614 24.9452Z" fill="url(#paint0_linear_452_18169)"/>
<g opacity="0.5" filter="url(#filter0_f_452_18169)">
<path d="M25.6535 21.8613C23.0178 21.8613 20.8787 24.0156 20.8787 26.6688C20.8787 29.3231 23.0178 31.4763 25.6535 31.4763C28.294 31.4763 30.4283 29.3231 30.4283 26.6688C30.4283 24.0156 28.294 21.8613 25.6535 21.8613Z" fill="#096ABA"/>
</g>
<foreignObject x="-2.43079" y="-21.2881" width="80.3073" height="81.1055"><div xmlns="http://www.w3.org/1999/xhtml" style="backdrop-filter:blur(12px);clip-path:url(#bgblur_0_452_18169_clip_path);height:100%;width:100%"></div></foreignObject><path data-figma-bg-blur-radius="24" d="M40.8968 3.38818L40.9462 3.40371C41.6578 3.66486 42.1912 4.26762 42.3633 5.00929L42.3654 5.01688L44.019 12.6598L44.0204 12.6622C44.1041 13.0594 44.3767 13.3892 44.747 13.5461L44.746 13.5458L51.9717 16.5384C52.7578 16.8619 53.2961 17.6005 53.3706 18.4466L53.3713 18.4558C53.4303 19.3074 52.9945 20.1146 52.2526 20.531L52.2533 20.5321L45.2679 24.4814C44.9257 24.6803 44.7008 25.038 44.666 25.4372L44.1408 33.2562L44.1243 33.4152C44.013 34.2043 43.4822 34.8756 42.7309 35.1589L42.7302 35.1577C41.9437 35.4731 41.05 35.3079 40.4245 34.7376L40.4242 34.7385L34.614 29.5344L34.6107 29.5315C34.504 29.4343 34.38 29.3564 34.2445 29.3009L34.1054 29.2536L33.7589 29.1659C33.6761 29.1603 33.5939 29.1663 33.5172 29.1864L33.5087 29.1883L25.9394 31.0245L25.9309 31.0264C25.4566 31.1328 24.9595 31.0878 24.5097 30.8935L24.4969 30.8882C23.3976 30.3763 22.9082 29.0766 23.386 27.963L23.3898 27.9559L26.5999 20.8162C26.7574 20.444 26.7271 20.0194 26.5204 19.6749L22.3962 12.9743C21.9505 12.2495 21.9612 11.3336 22.4238 10.6212C22.8757 9.91557 23.679 9.51784 24.5141 9.59368L24.52 9.59417L32.2974 10.3964L32.319 10.3988C32.7335 10.4589 33.152 10.3008 33.4274 9.97813L38.4348 3.99324L38.4424 3.98307L38.4433 3.98331C38.5924 3.81421 38.7696 3.66453 38.9717 3.54785L39.019 3.52356L39.1549 3.46324C39.2762 3.38813 39.4042 3.33147 39.5366 3.29287L39.6225 3.27532L39.792 3.25775L40.0667 3.21746L40.1645 3.21298C40.197 3.21467 40.2298 3.21942 40.2615 3.22746L40.8968 3.38818Z" fill="#3E6EF3" fill-opacity="0.4" stroke="url(#paint1_linear_452_18169)" stroke-linecap="round" stroke-linejoin="round"/>
<defs>
<filter id="filter0_f_452_18169" x="0.878662" y="1.86133" width="49.5497" height="49.6152" filterUnits="userSpaceOnUse" color-interpolation-filters="sRGB">
<feFlood flood-opacity="0" result="BackgroundImageFix"/>
<feBlend mode="normal" in="SourceGraphic" in2="BackgroundImageFix" result="shape"/>
<feGaussianBlur stdDeviation="10" result="effect1_foregroundBlur_452_18169"/>
</filter>
<clipPath id="bgblur_0_452_18169_clip_path" transform="translate(2.43079 21.2881)"><path d="M40.8968 3.38818L40.9462 3.40371C41.6578 3.66486 42.1912 4.26762 42.3633 5.00929L42.3654 5.01688L44.019 12.6598L44.0204 12.6622C44.1041 13.0594 44.3767 13.3892 44.747 13.5461L44.746 13.5458L51.9717 16.5384C52.7578 16.8619 53.2961 17.6005 53.3706 18.4466L53.3713 18.4558C53.4303 19.3074 52.9945 20.1146 52.2526 20.531L52.2533 20.5321L45.2679 24.4814C44.9257 24.6803 44.7008 25.038 44.666 25.4372L44.1408 33.2562L44.1243 33.4152C44.013 34.2043 43.4822 34.8756 42.7309 35.1589L42.7302 35.1577C41.9437 35.4731 41.05 35.3079 40.4245 34.7376L40.4242 34.7385L34.614 29.5344L34.6107 29.5315C34.504 29.4343 34.38 29.3564 34.2445 29.3009L34.1054 29.2536L33.7589 29.1659C33.6761 29.1603 33.5939 29.1663 33.5172 29.1864L33.5087 29.1883L25.9394 31.0245L25.9309 31.0264C25.4566 31.1328 24.9595 31.0878 24.5097 30.8935L24.4969 30.8882C23.3976 30.3763 22.9082 29.0766 23.386 27.963L23.3898 27.9559L26.5999 20.8162C26.7574 20.444 26.7271 20.0194 26.5204 19.6749L22.3962 12.9743C21.9505 12.2495 21.9612 11.3336 22.4238 10.6212C22.8757 9.91557 23.679 9.51784 24.5141 9.59368L24.52 9.59417L32.2974 10.3964L32.319 10.3988C32.7335 10.4589 33.152 10.3008 33.4274 9.97813L38.4348 3.99324L38.4424 3.98307L38.4433 3.98331C38.5924 3.81421 38.7696 3.66453 38.9717 3.54785L39.019 3.52356L39.1549 3.46324C39.2762 3.38813 39.4042 3.33147 39.5366 3.29287L39.6225 3.27532L39.792 3.25775L40.0667 3.21746L40.1645 3.21298C40.197 3.21467 40.2298 3.21942 40.2615 3.22746L40.8968 3.38818Z"/>
</clipPath><linearGradient id="paint0_linear_452_18169" x1="12.3228" y1="23.0785" x2="37.7778" y2="46.7663" gradientUnits="userSpaceOnUse">
<stop stop-color="#4B6EA7"/>
<stop offset="1" stop-color="#0D42D4"/>
</linearGradient>
<linearGradient id="paint1_linear_452_18169" x1="29.4337" y1="4.58146" x2="41.7314" y2="32.8299" gradientUnits="userSpaceOnUse">
<stop stop-color="white" stop-opacity="0.25"/>
<stop offset="1" stop-color="white" stop-opacity="0"/>
</linearGradient>
</defs>
</svg>
